<svg width="16" height="16" viewBox="0 0 16 16" fill="none" xmlns="http://www.w3.org/2000/svg">
<g clip-path="url(#clip0)">
<path fill-rule="evenodd" clip-rule="evenodd" d="M12.753 7L10.273 4.706C10.179 4.61383 10.1043 4.50382 10.0533 4.38242C10.0023 4.26102 9.976 4.13067 9.976 3.999C9.976 3.86732 10.0023 3.73697 10.0533 3.61557C10.1043 3.49418 10.179 3.38417 10.273 3.292C10.668 2.902 11.31 2.902 11.705 3.292L15.555 6.939C15.6966 7.07694 15.8089 7.24197 15.8854 7.42425C15.9618 7.60653 16.0008 7.80234 16 8C16 8.4 15.842 8.778 15.556 9.06L11.706 12.707C11.5144 12.8945 11.2571 12.9995 10.989 12.9995C10.7209 12.9995 10.4636 12.8945 10.272 12.707C10.1782 12.6147 10.1037 12.5046 10.0529 12.3833C10.002 12.2619 9.97586 12.1316 9.97586 12C9.97586 11.8684 10.002 11.7381 10.0529 11.6167C10.1037 11.4954 10.1782 11.3853 10.272 11.293L12.752 9L1 9C0.447 9 -1.9432e-07 8.554 -2.18536e-07 8C-2.42577e-07 7.45 0.448 7 1 7L12.753 7Z" fill="#3366CC"/>
</g>
<defs>
<clipPath id="clip0">
<rect y="16" width="16" height="16" transform="rotate(-90 0 16)" fill="white"/>
</clipPath>
</defs>
</svg>
