<svg width="16" height="16" viewBox="0 0 16 16" fill="none" xmlns="http://www.w3.org/2000/svg">
<g clip-path="url(#clip0)">
<path fill-rule="evenodd" clip-rule="evenodd" d="M9 12.753L11.294 10.273C11.3862 10.179 11.4962 10.1043 11.6176 10.0533C11.739 10.0023 11.8693 9.976 12.001 9.976C12.1327 9.976 12.263 10.0023 12.3844 10.0533C12.5058 10.1043 12.6158 10.179 12.708 10.273C13.098 10.668 13.098 11.31 12.708 11.705L9.061 15.555C8.92306 15.6966 8.75803 15.8089 8.57575 15.8854C8.39347 15.9618 8.19766 16.0008 8 16C7.6 16 7.222 15.842 6.94 15.556L3.293 11.706C3.10549 11.5144 3.00049 11.2571 3.00049 10.989C3.00049 10.7209 3.10549 10.4636 3.293 10.272C3.38531 10.1782 3.49536 10.1037 3.61674 10.0529C3.73812 10.002 3.8684 9.97586 4 9.97586C4.1316 9.97586 4.26188 10.002 4.38326 10.0529C4.50464 10.1037 4.61469 10.1782 4.707 10.272L7 12.752V1C7 0.447 7.446 0 8 0C8.55 0 9 0.448 9 1V12.753Z" fill="white"/>
</g>
<defs>
<clipPath id="clip0">
<rect width="16" height="16" fill="white"/>
</clipPath>
</defs>
</svg>
