<svg width="16" height="11" viewBox="0 0 16 11" fill="none" xmlns="http://www.w3.org/2000/svg">
<path fill-rule="evenodd" clip-rule="evenodd" d="M12.753 4.59997L10.273 2.30597C10.179 2.2138 10.1043 2.1038 10.0533 1.9824C10.0023 1.861 9.976 1.73065 9.976 1.59897C9.976 1.4673 10.0023 1.33695 10.0533 1.21555C10.1043 1.09415 10.179 0.984145 10.273 0.891973C10.668 0.501973 11.31 0.501973 11.705 0.891973L15.555 4.53897C15.6966 4.67692 15.8089 4.84195 15.8854 5.02423C15.9618 5.20651 16.0008 5.40231 16 5.59997C16 5.99997 15.842 6.37797 15.556 6.65997L11.706 10.307C11.5144 10.4945 11.2571 10.5995 10.989 10.5995C10.7209 10.5995 10.4636 10.4945 10.272 10.307C10.1782 10.2147 10.1037 10.1046 10.0529 9.98323C10.002 9.86185 9.97586 9.73157 9.97586 9.59997C9.97586 9.46838 10.002 9.33809 10.0529 9.21671C10.1037 9.09533 10.1782 8.98528 10.272 8.89297L12.752 6.59997L1 6.59997C0.447 6.59997 -1.9432e-07 6.15397 -2.18536e-07 5.59997C-2.42577e-07 5.04997 0.448 4.59997 1 4.59997L12.753 4.59997Z" fill="white"/>
</svg>
